<svg width="168" height="72" viewBox="0 0 168 72" fill="none" xmlns="http://www.w3.org/2000/svg">
<path d="M63.8222 17.5869C65.0074 13.3377 67.3778 9.56066 70.5778 6.60984C66.1333 2.5377 60.1482 0 53.5111 0C40 0 29.9259 10.6229 29.9259 23.6656C29.9259 35.4098 48.9481 51.3443 52.8593 54.4721C48.8296 49.5148 45.6889 44.3803 45.6889 40.4262C45.6889 29.5082 53.3926 20.3016 63.8222 17.5869Z" fill="#F39200"/>
<path d="M87.5852 0C81.0074 0 74.963 2.5377 70.5778 6.60984C73.837 9.61967 76.2074 13.4557 77.3333 17.7639C87.4667 20.7148 94.8148 29.7443 94.8148 40.4262C94.8148 44.7344 92.0889 49.6328 88.5333 54.2951C93.037 50.8131 112.178 35.2328 112.178 23.6656C112.119 10.6229 101.156 0 87.5852 0Z" fill="#F39200"/>
<path opacity="0.58" d="M70.2815 16.7607C72.7704 16.7607 75.1407 17.1148 77.3333 17.7639C76.2074 13.4557 73.7778 9.61967 70.5778 6.60984C67.3778 9.56066 65.0074 13.3377 63.8222 17.5869C65.8963 17.0557 68.0296 16.7607 70.2815 16.7607Z" fill="#CA9E67"/>
<path d="M70.2815 16.7607C72.7704 16.7607 75.1407 17.1148 77.3333 17.7639C76.2074 13.4557 73.7778 9.61967 70.5778 6.60984C67.3778 9.56066 65.0074 13.3377 63.8222 17.5869C65.8963 17.0557 68.0296 16.7607 70.2815 16.7607Z" fill="#D60B52"/>
<path opacity="0.58" d="M70.5778 39.0688C66.3704 33.9934 63.0519 28.5049 63.0519 23.6656C63.0519 21.541 63.3482 19.5344 63.8815 17.5869C53.3926 20.3016 45.6889 29.5082 45.6889 40.4262C45.6889 44.3803 48.8296 49.5148 52.8593 54.4721C53.2741 54.8262 53.5704 55.0033 53.5704 55.0033C53.5704 55.0033 63.3481 47.7443 70.5778 39.0688Z" fill="#CA9E67"/>
<path d="M70.5778 39.0688C66.3704 33.9934 63.0519 28.5049 63.0519 23.6656C63.0519 21.541 63.3482 19.5344 63.8815 17.5869C53.3926 20.3016 45.6889 29.5082 45.6889 40.4262C45.6889 44.3803 48.8296 49.5148 52.8593 54.4721C53.2741 54.8262 53.5704 55.0033 53.5704 55.0033C53.5704 55.0033 63.3481 47.7443 70.5778 39.0688Z" fill="#E94E1B"/>
<path opacity="0.58" d="M77.3333 17.7639C77.8667 19.6525 78.1037 21.659 78.1037 23.6656C78.1037 28.5049 74.7852 33.9934 70.5778 39.0689C77.8074 47.7443 87.5852 55.0033 87.5852 55.0033C87.5852 55.0033 87.9407 54.7672 88.5333 54.2951C92.1482 49.6918 94.8148 44.7934 94.8148 40.4262C94.8148 29.7443 87.4667 20.7148 77.3333 17.7639Z" fill="#CA9E67"/>
<path d="M77.3333 17.7639C77.8667 19.6525 78.1037 21.659 78.1037 23.6656C78.1037 28.5049 74.7852 33.9934 70.5778 39.0689C77.8074 47.7443 87.5852 55.0033 87.5852 55.0033C87.5852 55.0033 87.9407 54.7672 88.5333 54.2951C92.1482 49.6918 94.8148 44.7934 94.8148 40.4262C94.8148 29.7443 87.4667 20.7148 77.3333 17.7639Z" fill="#E94E1B"/>
<path opacity="0.58" d="M63.8222 17.5869C63.2889 19.5344 62.9926 21.541 62.9926 23.6656C62.9926 28.5049 66.3111 33.9934 70.5185 39.0688C74.7259 33.9934 78.0444 28.5049 78.0444 23.6656C78.0444 21.6 77.7482 19.6525 77.2741 17.7639C75.0222 17.1148 72.6519 16.7607 70.2222 16.7607C68.0296 16.7607 65.8963 17.0557 63.8222 17.5869Z" fill="#CA9E67"/>
<path opacity="0.58" d="M63.8222 17.5869C63.2889 19.5344 62.9926 21.541 62.9926 23.6656C62.9926 28.5049 66.3111 33.9934 70.5185 39.0688C74.7259 33.9934 78.0444 28.5049 78.0444 23.6656C78.0444 21.6 77.7482 19.6525 77.2741 17.7639C75.0222 17.1148 72.6519 16.7607 70.2222 16.7607C68.0296 16.7607 65.8963 17.0557 63.8222 17.5869Z" fill="#CA9E67"/>
<path d="M63.8222 17.5869C63.2889 19.5344 62.9926 21.541 62.9926 23.6656C62.9926 28.5049 66.3111 33.9934 70.5185 39.0688C74.7259 33.9934 78.0444 28.5049 78.0444 23.6656C78.0444 21.6 77.7482 19.6525 77.2741 17.7639C75.0222 17.1148 72.6519 16.7607 70.2222 16.7607C68.0296 16.7607 65.8963 17.0557 63.8222 17.5869Z" fill="#E30613"/>
<path d="M70.5778 39.0688C63.3481 47.7443 53.5704 55.0033 53.5704 55.0033C53.5704 55.0033 53.3333 54.8262 52.8593 54.4721C60.0889 63.3836 70.2815 71.7639 70.2815 71.7639C70.2815 71.7639 81.2444 63.6197 88.5333 54.2951C87.9407 54.7672 87.5852 55.0033 87.5852 55.0033C87.5852 55.0033 77.7481 47.7443 70.5778 39.0688Z" fill="#BE1622"/>
<path d="M47.5852 59.3705V67.5738C47.5852 69.3443 46.9926 70.4656 44.6815 70.4656H2.9037C0.592593 70.4656 0 69.3443 0 67.5738V7.5541C0 5.25246 1.12593 4.66229 2.9037 4.66229H12.8593C14.637 4.66229 15.763 5.25246 15.763 7.5541V56.4787H44.6815C46.9926 56.4787 47.5852 57.541 47.5852 59.3705Z" fill="white"/>
<path d="M168 50.9902C168 65.2131 156.741 72 141.274 72C128.711 72 114.252 64.8 114.252 50.8131C114.252 48.5115 114.844 48.0393 117.156 48.0393H126.874C129.185 48.0393 130.311 48.3344 130.489 50.8131C130.607 52.1115 131.081 53.4098 132.385 54.8852C134.4 57.3049 138.489 58.1902 142.222 58.1902C147.674 58.1902 152.059 57.0098 152.059 51.4033C152.059 45.7967 143.111 45.6787 134.578 43.023C124.444 39.8361 115.081 35.823 115.081 23.1344C115.081 10.1508 126.933 3.71803 139.496 3.2459C152.237 3.2459 166.222 9.02951 166.222 22.2492C166.222 24.6689 165.63 25.023 163.319 25.023H153.481C151.585 25.023 151.289 23.6066 150.756 22.3082C150.341 21.3049 149.867 20.4787 148.622 19.2984C146.726 17.4689 143.111 16.5836 140.089 16.5836C136.77 16.5836 131.259 17.882 131.259 22.3672C131.259 28.4459 146.015 30.6885 150.044 32.282C157.333 34.4656 168 37.3574 168 50.9902Z" fill="white"/>
</svg>
