<?xml version="1.0" standalone="no"?>
<!DOCTYPE svg PUBLIC "-//W3C//DTD SVG 20010904//EN"
 "http://www.w3.org/TR/2001/REC-SVG-20010904/DTD/svg10.dtd">
<svg version="1.0" xmlns="http://www.w3.org/2000/svg"
 width="1080.000000pt" height="1080.000000pt" viewBox="0 0 1080.000000 1080.000000"
 preserveAspectRatio="xMidYMid meet">
<metadata>
Created by potrace 1.14, written by Peter Selinger 2001-2017
</metadata>
<g transform="translate(0.000000,1080.000000) scale(0.100000,-0.100000)"
fill="#000000" stroke="none">
<path d="M1132 10789 c-541 -70 -983 -478 -1104 -1019 l-23 -105 0 -4265 c0
-4120 1 -4268 19 -4350 56 -255 164 -463 333 -641 183 -191 391 -312 653 -377
l105 -27 4230 -3 c4699 -3 4335 -8 4555 64 280 91 519 274 685 523 113 170
181 358 205 567 8 72 10 1241 8 4309 l-4 4210 -21 90 c-24 102 -59 206 -94
279 -23 46 -28 51 -90 72 -85 28 -109 41 -109 59 0 21 36 18 89 -5 24 -11 46
-18 49 -16 10 10 -96 153 -175 237 -183 192 -394 314 -653 377 -103 25 -115
25 -542 29 l-438 5 5 -34 5 -33 -15 33 -15 32 -3798 -1 c-2088 -1 -3825 -5
-3860 -10z m8223 -114 c88 -20 154 -53 167 -81 18 -38 -1 -48 -53 -29 -24 9
-60 20 -79 24 -32 7 -56 17 -87 38 -14 10 -28 63 -17 63 5 0 36 -7 69 -15z
m454 -180 c26 -25 6 -26 -90 -5 -52 12 -103 22 -113 24 -21 3 -41 47 -32 71 4
12 27 6 113 -31 59 -24 114 -51 122 -59z m-2974 26 c18 -7 7 -8 -139 -11 -22
0 -44 4 -50 10 -12 12 158 13 189 1z m2465 -31 c0 -5 -2 -10 -4 -10 -3 0 -8 5
-11 10 -3 6 -1 10 4 10 6 0 11 -4 11 -10z m-2847 -187 c-7 -2 -19 -2 -25 0 -7
3 -2 5 12 5 14 0 19 -2 13 -5z m2497 -58 c0 -8 -4 -15 -10 -15 -5 0 -10 7 -10
15 0 8 5 15 10 15 6 0 10 -7 10 -15z m1414 -5 c30 -11 37 -50 9 -50 -26 1 -67
35 -59 49 9 14 17 14 50 1z m-4079 -1664 c83 -15 220 -65 267 -97 14 -11 29
-19 32 -19 18 0 143 -98 223 -174 76 -73 273 -302 273 -318 0 -2 25 -42 55
-88 30 -46 58 -92 61 -104 4 -12 10 -23 14 -26 10 -7 35 -60 92 -190 27 -63
55 -128 63 -145 29 -66 106 -323 135 -452 7 -29 14 -53 16 -53 3 0 26 11 52
24 62 31 243 89 362 115 396 88 927 -2 1251 -211 243 -157 386 -375 415 -633
5 -50 39 -159 75 -240 29 -67 85 -271 105 -384 80 -458 43 -983 -96 -1366 -19
-49 -36 -92 -40 -95 -4 -3 -10 -16 -14 -30 -8 -28 -38 -102 -69 -169 -23 -52
-201 -321 -255 -386 -5 -6 -23 -30 -40 -54 -116 -160 -353 -391 -567 -553 -5
-4 -24 -19 -41 -33 -18 -14 -37 -25 -42 -25 -6 0 -15 -6 -19 -12 -9 -15 -131
-98 -143 -98 -5 0 -10 -4 -12 -8 -3 -9 -148 -100 -226 -143 -280 -152 -517
-272 -638 -324 -60 -26 -122 -53 -139 -60 -16 -7 -59 -23 -95 -35 -36 -12 -69
-25 -75 -30 -5 -4 -28 -13 -50 -19 -22 -7 -53 -18 -70 -26 -16 -7 -46 -18 -65
-25 -467 -159 -707 -226 -1024 -285 -44 -8 -96 -19 -115 -24 -64 -17 -154 -25
-147 -13 3 6 2 13 -3 16 -18 12 34 54 74 61 63 11 445 104 495 120 25 8 52 15
61 15 14 0 59 12 214 59 33 10 94 29 135 41 41 12 84 26 95 30 11 5 31 12 45
15 37 9 219 75 267 96 24 11 49 19 56 19 7 0 21 6 32 14 11 7 31 17 45 21 14
4 45 16 70 27 68 30 80 35 150 63 165 67 552 263 720 365 169 102 213 132 400
269 178 130 341 279 477 436 58 67 206 268 268 363 6 9 34 50 63 91 28 42 52
86 52 98 0 12 4 24 9 27 5 3 11 16 14 28 5 18 0 16 -21 -12 -115 -149 -270
-267 -452 -344 -45 -19 -74 -39 -93 -64 -46 -61 -117 -139 -207 -231 -151
-152 -164 -163 -417 -348 -17 -13 -34 -23 -37 -23 -3 0 -14 -8 -25 -19 -10
-10 -25 -21 -32 -23 -8 -3 -12 -8 -9 -11 3 -3 24 7 47 23 23 16 50 30 60 32
10 2 21 7 25 13 5 6 18 6 38 -2 25 -9 30 -9 30 3 0 8 -4 14 -10 14 -5 0 -10 9
-10 20 0 11 5 20 10 20 6 0 10 -6 10 -14 0 -8 7 -16 15 -20 17 -6 21 -36 5
-36 -5 0 -10 -6 -10 -14 0 -8 -11 -17 -25 -20 -14 -4 -24 -12 -22 -18 1 -7 -6
-14 -16 -16 -25 -5 -68 -50 -54 -56 7 -2 -46 -5 -118 -6 -93 0 -137 -5 -155
-15 -25 -14 -25 -14 15 -16 22 0 60 0 85 0 46 0 142 -16 104 -18 -12 0 -31
-10 -44 -21 -13 -11 -32 -20 -42 -20 -10 0 -21 -7 -24 -15 -4 -8 -11 -15 -18
-15 -6 0 -17 -9 -24 -20 -7 -11 -21 -20 -32 -20 -10 0 -23 -6 -27 -13 -4 -7
-25 -21 -45 -31 -21 -9 -38 -21 -38 -26 0 -5 -10 -10 -22 -12 -15 -2 -22 -9
-22 -21 2 -15 -19 -23 -48 -18 -5 0 -8 -4 -8 -9 0 -6 -7 -10 -15 -10 -8 0 -15
-4 -15 -10 0 -5 -11 -10 -25 -10 -14 0 -29 -8 -35 -20 -6 -11 -17 -20 -25 -20
-23 0 -65 -22 -59 -31 3 -5 -2 -9 -10 -9 -9 0 -16 -4 -16 -9 0 -5 -9 -7 -20
-4 -11 3 -20 0 -20 -6 0 -6 -7 -11 -15 -11 -28 0 -108 -57 -100 -70 3 -5 -10
-7 -28 -6 -24 1 -32 -3 -31 -15 1 -12 -5 -14 -24 -11 -15 3 -23 1 -19 -5 6
-10 -55 -33 -87 -33 -9 0 -16 -4 -16 -8 0 -5 -32 -19 -70 -31 -39 -13 -73 -27
-76 -32 -3 -5 -9 -7 -14 -4 -4 3 -30 -5 -58 -16 l-50 -21 -20 20 c-11 11 -18
23 -15 26 14 14 -30 17 -45 3 -9 -8 -34 -22 -55 -31 -21 -8 -36 -20 -32 -26 3
-5 -5 -14 -19 -20 -26 -9 -42 -7 -82 12 -13 6 -113 8 -260 5 -217 -3 -248 -6
-334 -29 -52 -14 -120 -29 -151 -32 -51 -7 -57 -5 -71 17 -22 32 -7 55 40 63
41 7 154 36 217 56 32 10 40 18 39 35 -2 27 -21 53 -41 53 -10 0 -13 11 -11
41 3 40 5 42 38 45 72 7 131 26 145 47 8 11 27 26 42 33 l28 12 -25 1 c-24 1
-113 -13 -270 -43 -84 -16 -95 -12 -106 41 -8 43 12 52 150 67 112 12 178 33
144 45 -24 9 -88 70 -88 85 0 16 47 57 85 75 l30 14 -37 7 c-40 7 -68 26 -68
45 0 18 37 48 50 40 6 -4 16 -2 23 4 10 8 119 31 150 31 4 0 7 5 7 10 0 6 -23
10 -51 10 l-50 0 18 30 c9 17 21 30 26 30 5 0 36 14 69 30 46 24 63 28 78 20
17 -9 20 -7 20 14 0 14 4 27 10 31 5 3 7 11 4 18 -9 24 22 48 81 63 109 27
122 32 99 33 -12 1 -39 -5 -60 -13 -52 -18 -272 -40 -318 -32 -21 4 -36 13
-36 21 0 15 28 24 155 50 122 25 208 45 225 54 9 5 31 12 50 15 19 4 62 16 95
26 33 11 94 29 135 41 159 45 360 129 360 150 0 6 4 7 10 4 5 -3 18 -1 27 4
15 9 14 10 -11 11 -49 0 -22 11 37 14 45 2 66 10 113 42 32 21 65 42 74 45 9
4 -21 23 -81 52 -106 51 -109 51 -204 6 -65 -30 -220 -74 -300 -84 -27 -4 -63
-11 -80 -16 -29 -8 -126 -24 -330 -55 -107 -16 -230 -15 -230 1 0 6 18 11 40
13 22 1 81 9 130 18 50 9 128 22 175 29 139 23 290 52 365 70 97 23 285 88
285 99 0 2 -17 15 -38 29 -21 13 -68 50 -103 80 -54 45 -68 53 -83 45 -18 -10
-84 -31 -156 -48 -39 -9 -105 -17 -230 -25 -91 -6 -129 7 -116 40 7 20 5 20
181 40 129 15 243 40 275 60 5 3 -11 34 -37 68 -108 145 -174 341 -177 522 -1
111 12 147 60 165 14 6 151 10 306 10 l280 0 -6 26 c-21 83 -109 201 -167 222
-41 16 -159 6 -189 -16 -14 -11 -43 -29 -65 -40 -22 -12 -57 -37 -79 -57 -28
-26 -46 -35 -65 -33 -37 4 -41 46 -6 78 19 18 25 33 25 66 0 25 -6 47 -15 54
-8 7 -15 20 -15 30 0 25 -40 130 -62 162 -10 14 -18 29 -18 32 0 9 -40 48 -69
68 -85 58 -183 -36 -228 -217 -38 -154 -12 -362 81 -637 29 -86 31 -106 14
-143 -9 -20 -18 -25 -37 -23 -23 3 -26 7 -23 35 2 19 -16 91 -46 180 -79 232
-98 410 -63 590 14 74 44 148 65 160 8 4 17 20 20 35 6 33 33 61 85 88 90 46
186 13 265 -92 37 -48 86 -151 86 -179 0 -30 18 -31 32 -2 8 16 21 27 31 27
26 -3 32 39 17 119 -16 92 -59 218 -91 267 -5 8 -15 26 -22 40 -40 83 -216
239 -237 212 -3 -4 -12 -25 -19 -47 -41 -124 -165 -331 -298 -498 -54 -67 -61
-81 -53 -101 5 -13 12 -53 15 -88 12 -115 54 -312 96 -457 20 -66 25 -114 9
-76 -12 29 -12 11 1 -41 7 -28 16 -43 24 -40 8 3 11 -4 8 -22 -4 -22 -2 -24 7
-12 8 12 9 9 4 -12 -3 -14 0 -37 7 -49 11 -22 13 -22 19 -5 3 11 6 -6 5 -36
-1 -60 -16 -88 -47 -88 -15 0 -18 -4 -13 -17 24 -56 11 -113 -25 -113 -15 0
-20 7 -20 29 0 28 -29 54 -31 28 0 -7 -5 3 -11 22 -12 42 -70 129 -76 113 -4
-13 46 -131 65 -149 21 -23 37 -117 24 -141 -17 -32 -40 -27 -57 13 -11 28
-20 35 -42 36 -26 0 -26 1 -5 9 l22 9 -28 58 c-33 65 -121 270 -121 281 0 4
-12 25 -26 47 -24 37 -25 37 -19 11 3 -16 21 -59 39 -96 20 -41 31 -73 26 -80
-5 -7 -4 -20 1 -29 9 -16 29 -70 52 -141 6 -19 15 -37 19 -40 12 -9 -24 -78
-43 -83 -24 -6 -39 13 -46 60 -5 35 -43 144 -65 186 -8 15 -12 16 -24 6 -18
-15 -18 -15 35 -142 46 -111 48 -122 24 -171 -19 -40 -36 -50 -63 -36 -14 8
-18 21 -17 67 0 45 -7 74 -32 128 -18 39 -42 94 -53 122 -18 49 -22 53 -49 50
-31 -2 -44 16 -108 153 -22 47 -29 42 -10 -7 6 -15 17 -48 24 -73 7 -25 33
-101 58 -170 54 -155 61 -193 39 -213 -24 -21 -62 -5 -62 26 0 12 -9 41 -21
62 -11 22 -29 69 -39 103 -11 35 -23 69 -28 75 -13 16 -83 195 -91 231 -8 35
-31 47 -31 16 0 -11 8 -40 19 -63 10 -23 37 -94 60 -157 44 -122 58 -156 76
-180 14 -19 39 -129 31 -137 -3 -4 -6 -1 -6 6 0 7 -6 27 -14 44 -8 18 -27 61
-41 97 -14 36 -33 79 -41 97 -8 17 -14 35 -14 40 -1 4 -9 26 -20 48 -11 22
-19 44 -20 50 0 10 -31 92 -57 153 l-14 33 -35 -31 c-46 -40 -52 -38 -16 8
113 144 229 367 263 507 53 224 -10 534 -159 775 -67 108 -202 256 -308 335
-90 68 -223 140 -324 176 l-75 27 -26 74 c-59 169 -148 317 -258 431 l-66 69
35 29 c121 102 315 208 464 253 l71 22 17 147 c24 211 60 373 117 540 29 84
107 239 142 284 17 21 37 53 44 71 18 41 41 50 66 25 19 -19 19 -19 -1 -43
-11 -13 -20 -27 -20 -32 0 -4 -9 -8 -21 -8 -15 0 -19 -5 -15 -16 3 -8 -18 -65
-48 -127 -30 -62 -58 -126 -62 -142 -4 -17 -10 -34 -14 -40 -26 -34 -84 -285
-105 -450 -9 -66 -19 -138 -22 -159 l-6 -39 32 6 c17 4 74 10 126 13 61 5 95
11 95 18 0 29 76 239 111 307 37 71 54 94 94 127 8 7 15 21 15 30 0 18 100
124 137 145 129 75 207 100 313 99 142 -1 280 -50 439 -157 55 -37 191 -163
256 -238 25 -29 85 -115 85 -123 0 -4 9 -17 19 -28 10 -12 29 -39 42 -61 67
-119 101 -182 124 -233 15 -31 37 -79 50 -107 51 -109 75 -168 75 -186 0 -18
2 -18 34 3 23 15 32 27 28 41 -4 15 -7 16 -14 5 -5 -8 -8 5 -7 37 1 28 -4 66
-10 85 -6 19 -11 49 -11 66 0 18 -12 67 -26 110 -56 173 -142 388 -190 476 -8
15 -14 33 -13 40 3 26 -1 38 -14 38 -7 0 -34 37 -62 83 -27 45 -53 87 -57 92
-5 6 -22 28 -38 50 -43 58 -40 54 -102 130 -68 84 -244 255 -263 255 -3 0 -26
15 -52 34 -72 50 -206 103 -311 122 -81 15 -103 15 -169 4 -89 -16 -199 -67
-288 -134 l-60 -46 -18 22 c-10 11 -16 26 -14 32 7 23 125 109 195 143 128 63
226 76 377 49z m-2183 -1357 c210 -42 414 -141 581 -282 l27 -23 -57 -63 c-32
-34 -77 -88 -101 -119 -51 -68 -146 -252 -167 -326 -15 -51 -40 -76 -78 -76
-15 0 -144 -52 -209 -85 -203 -102 -425 -327 -531 -540 -74 -148 -119 -337
-120 -505 0 -89 4 -117 26 -183 49 -140 144 -306 284 -492 l38 -50 -44 35
c-219 172 -574 529 -759 763 -149 188 -277 419 -324 582 -44 153 -26 395 43
593 84 237 252 459 448 591 150 102 360 180 541 201 104 12 287 3 402 -21z
m-2245 -229 c17 -10 38 -29 45 -42 10 -19 14 -269 16 -1305 l2 -1283 743 0
c408 0 760 -5 781 -10 22 -5 51 -20 65 -35 l26 -25 3 -274 c3 -228 1 -280 -12
-310 -29 -70 39 -66 -1201 -66 -1237 0 -1172 -4 -1200 64 -22 53 -22 3189 0
3242 25 60 42 63 390 64 290 0 312 -1 342 -20z m8310 -1227 c-3 -10 -5 -2 -5
17 0 19 2 27 5 18 2 -10 2 -26 0 -35z m-3043 -378 c5 -24 4 -26 -3 -10 -10 20
-11 19 -15 -23 -2 -13 -9 -28 -17 -33 -20 -12 -29 -11 -24 4 2 6 7 31 9 55 3
23 8 47 12 53 10 16 31 -10 38 -46z m-547 -857 c-3 -8 -6 -5 -6 6 -1 11 2 17
5 13 3 -3 4 -12 1 -19z m3051 -1082 c-6 -14 -17 -27 -25 -30 -9 -4 -7 4 7 24
26 36 33 39 18 6z m-38 -56 c0 -5 -5 -10 -11 -10 -5 0 -7 5 -4 10 3 6 8 10 11
10 2 0 4 -4 4 -10z m-2733 -6 c-3 -3 -12 -4 -19 -1 -8 3 -5 6 6 6 11 1 17 -2
13 -5z m2656 -89 c-3 -9 -8 -14 -10 -11 -3 3 -2 9 2 15 9 16 15 13 8 -4z m-42
-48 c-10 -9 -11 -8 -5 6 3 10 9 15 12 12 3 -3 0 -11 -7 -18z m-31 -38 c-7 -11
-14 -18 -17 -15 -3 3 0 12 7 21 18 21 23 19 10 -6z m-40 -44 c-7 -8 -17 -15
-23 -15 -6 0 -2 7 9 15 25 19 30 19 14 0z m-863 -43 c-10 -10 -17 -24 -17 -30
0 -7 -8 -12 -17 -12 -12 0 -18 8 -18 24 0 15 5 22 13 19 6 -3 12 0 12 6 0 6
10 11 22 11 20 0 20 -1 5 -18z m818 -2 c-3 -5 -12 -10 -18 -10 -7 0 -6 4 3 10
19 12 23 12 15 0z m-178 -146 c2 -6 -6 -14 -18 -17 -11 -3 -18 -10 -15 -15 3
-6 -2 -8 -12 -5 -12 3 -34 -9 -60 -33 -44 -39 -58 -68 -19 -40 12 9 30 20 39
26 33 20 9 -14 -28 -40 -20 -14 -43 -33 -52 -42 -9 -10 -22 -18 -29 -18 -6 0
-16 -6 -20 -12 -12 -19 -74 -61 -80 -55 -8 9 7 27 22 27 7 0 16 7 19 15 3 9
21 22 40 30 36 15 76 65 42 52 -31 -12 -15 8 45 58 34 28 69 58 78 67 18 18
42 19 48 2z m-227 -169 c-7 -8 -17 -15 -23 -15 -5 0 -2 9 8 20 21 23 35 19 15
-5z m-95 -71 c-22 -19 -57 -44 -77 -54 -20 -11 -39 -24 -43 -30 -3 -5 -13 -10
-22 -10 -9 0 6 14 33 32 27 18 53 38 57 45 4 7 14 13 21 13 7 0 21 9 31 20 10
11 23 20 29 20 6 -1 -7 -17 -29 -36z m5 -34 c0 -6 -11 -15 -24 -20 -13 -5 -25
-12 -27 -17 -6 -13 -67 -53 -81 -53 -8 1 -5 7 7 16 11 8 27 20 35 27 8 6 28
18 43 26 15 8 27 18 27 23 0 4 5 8 10 8 6 0 10 -5 10 -10z m-180 -85 c-14 -8
-29 -14 -35 -14 -5 0 1 6 15 14 14 8 30 14 35 14 6 0 -1 -6 -15 -14z m25 -15
c-3 -5 -11 -10 -16 -10 -6 0 -7 5 -4 10 3 6 11 10 16 10 6 0 7 -4 4 -10z m-80
-20 c-3 -5 -10 -10 -15 -10 -20 0 -47 -33 -43 -51 4 -14 0 -19 -13 -19 -16 0
-16 2 -4 10 8 5 12 11 9 14 -7 7 -89 -34 -89 -44 0 -5 -13 -11 -30 -15 -16 -4
-30 -11 -30 -16 0 -5 -8 -13 -17 -16 -19 -7 -74 -42 -108 -68 -12 -9 -14 -15
-6 -15 8 0 2 -9 -12 -20 -14 -11 -29 -20 -33 -20 -4 0 1 6 12 14 30 22 11 29
-25 9 -18 -11 -31 -26 -31 -38 0 -16 -2 -17 -10 -5 -7 12 -13 10 -34 -13 -28
-30 -41 -35 -32 -12 5 13 2 13 -19 -1 -14 -9 -25 -23 -25 -31 0 -9 -6 -13 -14
-10 -8 3 -25 -4 -38 -16 -13 -12 -32 -21 -42 -19 -9 2 -26 -4 -37 -14 -10 -9
-19 -14 -19 -10 0 3 -14 -1 -31 -10 -25 -13 -29 -18 -18 -26 10 -7 6 -8 -14
-4 -18 5 -33 1 -43 -9 -9 -8 -24 -15 -33 -15 -10 0 -24 -7 -31 -15 -7 -8 -19
-15 -26 -15 -8 0 -14 -4 -14 -9 0 -5 -8 -7 -19 -4 -11 3 -24 -3 -32 -14 -8
-10 -27 -19 -44 -21 -16 -1 -37 -11 -45 -20 -8 -10 -23 -16 -32 -14 -10 2 -18
-1 -18 -7 0 -6 -9 -11 -21 -11 -11 0 -18 -3 -16 -7 3 -5 -10 -9 -29 -10 -19
-1 -41 -9 -50 -17 -8 -9 -20 -16 -26 -16 -5 0 -24 -6 -41 -14 -18 -8 -54 -22
-82 -30 -81 -24 -119 -40 -150 -61 -17 -10 -40 -18 -53 -16 -13 1 -31 -4 -40
-11 -18 -16 -118 -58 -136 -58 -6 0 -24 -7 -40 -15 -16 -9 -31 -13 -34 -10 -9
9 10 20 88 50 41 16 79 32 84 37 6 4 16 8 23 8 8 0 33 9 55 20 23 11 47 20 52
20 6 1 29 9 51 20 22 11 44 19 48 20 5 0 23 7 40 15 18 7 84 35 147 60 109 44
132 53 225 95 218 98 448 213 610 307 22 13 54 30 70 38 17 9 48 27 70 40 22
13 47 27 55 31 8 4 36 23 62 41 26 18 51 33 56 33 4 0 23 11 42 25 35 26 56
33 45 15z m-2410 -290 c4 -6 -6 -10 -22 -10 -22 0 -25 2 -13 10 19 12 27 12
35 0z m-92 -17 c-7 -2 -19 -2 -25 0 -7 3 -2 5 12 5 14 0 19 -2 13 -5z m615
-130 c-10 -2 -26 -2 -35 0 -10 3 -2 5 17 5 19 0 27 -2 18 -5z m-68 -23 c0 -5
-5 -10 -11 -10 -5 0 -7 5 -4 10 3 6 8 10 11 10 2 0 4 -4 4 -10z m74 -439 c-5
-5 -31 -16 -59 -25 -90 -28 -150 -48 -170 -57 -24 -11 -104 -29 -125 -28 -8 0
14 9 50 20 168 51 226 71 275 94 30 14 46 12 29 -4z m-421 -138 c-7 -2 -19 -2
-25 0 -7 3 -2 5 12 5 14 0 19 -2 13 -5z"/>
<path d="M6170 7876 c-194 -43 -377 -262 -456 -544 -25 -91 -29 -85 71 -99 50
-7 120 -22 157 -32 l67 -18 23 24 c27 29 149 113 164 113 6 0 25 7 42 15 48
24 149 37 232 30 162 -14 292 -82 449 -235 135 -132 249 -293 290 -411 l11
-33 40 39 c22 22 40 46 40 54 0 12 -33 105 -60 166 -36 83 -170 348 -193 382
-15 23 -30 53 -32 65 -3 13 -13 30 -23 38 -10 8 -39 42 -65 76 -89 118 -314
304 -397 329 -14 4 -30 12 -36 17 -20 15 -146 38 -209 37 -33 0 -85 -6 -115
-13z"/>
<path d="M6320 7261 c-85 -28 -142 -56 -180 -89 l-34 -29 50 -26 c96 -49 233
-147 316 -228 68 -67 91 -83 127 -90 113 -23 293 -145 367 -249 21 -30 41 -59
43 -64 2 -6 14 -21 25 -33 l22 -23 39 82 c22 46 46 88 53 94 11 8 8 20 -17 65
-17 29 -35 64 -41 77 -15 35 -136 216 -154 231 -9 8 -16 19 -16 25 0 13 -111
117 -181 168 -128 96 -293 131 -419 89z m649 -481 c21 0 64 -43 67 -67 2 -10
-2 -23 -7 -29 -7 -8 -6 -14 3 -17 7 -2 10 -7 6 -11 -12 -13 -49 18 -44 37 3
13 0 17 -10 13 -8 -3 -14 1 -14 9 0 8 -6 15 -14 15 -16 0 -26 31 -25 75 l1 30
10 -27 c5 -16 17 -28 27 -28z m-43 -130 c15 -6 24 -13 20 -17 -3 -3 -1 -12 5
-20 20 -23 -5 -14 -34 12 -39 37 -37 42 9 25z"/>
<path d="M6660 6660 c60 -84 160 -341 160 -411 0 -20 41 -69 58 -69 6 0 10 8
9 19 -1 13 -7 17 -21 13 -13 -3 -17 -1 -12 6 4 7 14 12 21 12 8 0 17 11 21 25
4 14 16 28 28 31 18 4 22 12 21 44 0 21 -3 36 -6 34 -11 -6 -18 22 -9 36 6 10
17 0 39 -36 29 -44 39 -54 42 -38 2 14 -135 194 -183 240 -54 52 -158 124
-178 124 -6 0 -2 -13 10 -30z"/>
<path d="M8165 6390 c-27 -5 -70 -15 -95 -22 l-45 -13 95 -8 c52 -4 114 -9
136 -11 26 -2 50 -12 63 -25 11 -11 27 -21 34 -21 16 0 97 -43 167 -89 77 -50
155 -121 228 -209 55 -65 151 -210 187 -282 15 -30 32 -66 39 -80 7 -14 18
-44 26 -67 11 -35 19 -45 48 -54 61 -20 180 -77 237 -114 63 -40 62 -41 41 70
-22 115 -43 190 -101 355 -16 44 -54 130 -62 140 -3 3 -62 5 -133 5 -123 0
-129 1 -155 25 -15 14 -47 66 -70 115 -70 146 -164 221 -331 264 -93 24 -239
34 -309 21z"/>
<path d="M6952 6281 c-10 -6 -10 -10 2 -20 10 -9 16 -9 21 -1 10 16 -7 31 -23
21z"/>
<path d="M8028 6243 l-27 -19 32 -17 c18 -9 44 -19 59 -23 24 -5 26 -8 17 -32
-12 -31 -5 -52 16 -52 8 0 15 -4 15 -10 0 -13 -10 -13 -49 1 -41 14 -121 3
-121 -17 0 -8 -12 -20 -27 -27 -25 -11 -25 -12 28 -24 127 -28 185 -47 229
-74 8 -5 31 -17 50 -25 19 -9 37 -19 40 -23 3 -3 17 -12 32 -20 33 -17 143
-122 182 -173 22 -29 40 -40 84 -53 31 -8 115 -34 185 -56 71 -22 131 -38 134
-36 8 9 -68 160 -123 242 -115 172 -240 293 -374 360 -30 14 -63 31 -72 36
-10 5 -24 9 -31 9 -7 0 -33 10 -58 22 -62 30 -184 36 -221 11z m122 -114 c0
-5 -9 -9 -20 -9 -22 0 -27 16 -7 23 15 5 27 -1 27 -14z"/>
<path d="M6900 6225 c0 -18 27 -27 33 -10 3 7 -3 15 -14 18 -11 3 -19 0 -19
-8z"/>
<path d="M6837 6018 c-4 -51 -9 -103 -13 -115 -5 -17 -2 -23 9 -23 30 0 113
-56 171 -115 24 -25 28 -26 22 -9 -13 40 -36 159 -36 185 0 24 -43 77 -122
147 l-25 23 -6 -93z"/>
<path d="M9556 5985 c-15 -12 -53 -15 -163 -15 -92 0 -143 -4 -143 -10 0 -6 8
-27 19 -48 47 -95 113 -327 147 -517 18 -99 19 -101 81 -175 127 -150 181
-303 191 -540 l6 -145 13 60 c7 33 21 159 32 280 17 200 17 234 5 390 -15 178
-46 385 -71 470 -34 112 -86 265 -92 265 -3 0 -15 -7 -25 -15z"/>
<path d="M7920 5925 c0 -11 138 -94 200 -120 62 -26 258 -95 269 -95 5 0 -64
65 -95 89 -42 33 -174 94 -239 111 -75 19 -135 26 -135 15z"/>
<path d="M7247 5375 c-18 -13 -23 -70 -8 -93 9 -15 27 -8 79 30 l22 16 -38 30
c-32 26 -40 28 -55 17z"/>
<path d="M7344 5277 c-21 -12 -42 -26 -45 -30 -3 -5 -24 -14 -45 -21 -30 -10
-43 -22 -58 -54 -21 -43 -59 -60 -85 -39 -12 10 -13 8 -8 -13 4 -14 7 -35 7
-47 0 -29 15 -29 55 1 41 31 95 46 173 46 56 0 65 -2 69 -21 4 -15 8 -17 14
-8 6 10 16 9 48 -6 80 -36 139 -114 182 -239 18 -56 25 -65 50 -70 38 -7 66
-55 75 -125 8 -70 33 -130 81 -193 45 -58 109 -106 124 -91 5 5 19 48 31 94
28 109 30 339 4 408 -9 24 -16 56 -16 70 0 15 -5 32 -11 38 -5 5 -18 25 -27
43 -15 30 -30 38 -162 85 -150 54 -278 112 -366 163 l-50 30 -40 -21z"/>
<path d="M6341 5119 c-26 -32 -32 -46 -28 -72 14 -93 131 -478 192 -632 29
-72 59 -115 82 -115 25 0 19 25 -52 215 -72 191 -145 494 -145 598 0 26 -3 47
-7 47 -5 0 -23 -19 -42 -41z"/>
<path d="M8025 5000 c0 -17 5 -34 11 -38 27 -19 33 -71 30 -272 -3 -172 -7
-216 -24 -275 -12 -38 -22 -73 -22 -77 0 -15 199 -64 224 -55 19 8 75 167 93
267 8 47 16 141 16 210 1 69 6 128 11 132 5 3 3 13 -6 22 -9 9 -18 20 -20 26
-2 6 -64 25 -138 44 -74 18 -144 36 -155 39 -17 6 -20 2 -20 -23z"/>
<path d="M8417 4888 c13 -69 7 -276 -10 -370 -17 -90 -52 -206 -68 -222 -17
-18 -9 -23 36 -23 25 0 45 4 45 8 0 4 30 5 68 2 l67 -5 23 51 c12 28 22 57 22
64 0 7 4 17 9 23 8 8 31 105 52 214 4 25 8 86 8 136 l1 91 -42 16 c-43 16
-194 57 -210 57 -5 0 -5 -19 -1 -42z m58 -538 c4 -6 -7 -10 -27 -10 -25 0 -29
3 -18 10 19 13 37 13 45 0z"/>
<path d="M6254 4826 c-7 -30 13 -137 33 -176 7 -14 13 -31 13 -38 0 -7 13 -37
29 -67 16 -30 37 -77 46 -105 22 -66 75 -126 75 -86 0 18 -32 76 -42 76 -5 0
-8 12 -8 28 0 27 -60 169 -77 181 -29 20 -46 70 -48 133 -2 74 -10 96 -21 54z"/>
<path d="M8760 4800 c0 -8 -7 -72 -15 -141 -13 -118 -22 -159 -60 -280 -8 -26
-15 -52 -15 -58 0 -16 59 15 67 34 3 8 9 12 15 9 14 -9 58 36 58 59 0 10 -9
31 -20 47 -17 24 -18 29 -5 40 8 7 12 16 9 21 -3 5 -2 14 1 20 4 6 13 -1 22
-18 9 -18 11 -29 4 -31 -16 -5 -13 -22 4 -22 38 0 60 155 31 223 -16 38 -96
118 -96 97z"/>
<path d="M8803 3597 c-4 -8 -17 -17 -28 -21 -15 -6 -17 -9 -6 -16 19 -11 32
-4 54 25 15 21 15 25 3 25 -8 0 -19 -6 -23 -13z"/>
<path d="M7690 3591 c0 -7 11 -12 28 -10 15 1 38 -1 52 -4 41 -10 230 -16 230
-7 0 4 -33 10 -72 13 -219 19 -238 20 -238 8z"/>
<path d="M8130 3562 c0 -20 241 -34 247 -14 4 9 -19 12 -90 12 -52 0 -109 3
-126 6 -19 4 -31 2 -31 -4z"/>
<path d="M8494 3539 c-14 -15 -13 -17 8 -18 74 -2 174 -14 182 -21 4 -5 1 -23
-8 -41 -9 -18 -16 -33 -16 -35 0 -1 28 24 62 57 34 32 60 60 58 63 -3 2 -65 6
-138 8 -114 3 -136 1 -148 -13z"/>
<path d="M8070 3394 c0 -8 5 -12 10 -9 6 4 8 11 5 16 -9 14 -15 11 -15 -7z"/>
<path d="M8625 3399 c-4 -6 -5 -12 -2 -15 2 -3 7 2 10 11 7 17 1 20 -8 4z"/>
<path d="M7285 3390 c-3 -5 -1 -10 4 -10 6 0 11 5 11 10 0 6 -2 10 -4 10 -3 0
-8 -4 -11 -10z"/>
<path d="M8581 3383 c-1 -17 16 -25 25 -12 4 7 3 9 -4 5 -5 -3 -13 0 -15 6 -4
9 -6 10 -6 1z"/>
<path d="M8480 3269 c0 -5 5 -7 10 -4 6 3 10 8 10 11 0 2 -4 4 -10 4 -5 0 -10
-5 -10 -11z"/>
<path d="M6640 3150 c0 -5 5 -10 11 -10 5 0 7 5 4 10 -3 6 -8 10 -11 10 -2 0
-4 -4 -4 -10z"/>
<path d="M6794 3111 c-40 -25 -46 -34 -38 -66 5 -19 12 -25 34 -25 16 0 31 4
34 9 4 5 29 15 56 22 65 17 87 39 38 37 -40 -1 -58 7 -58 28 0 20 -29 18 -66
-5z"/>
<path d="M8170 3105 c0 -8 9 -15 20 -15 13 0 18 5 14 15 -4 8 -12 15 -20 15
-8 0 -14 -7 -14 -15z"/>
<path d="M6665 3080 c-8 -13 3 -30 21 -30 18 0 18 14 0 29 -10 8 -16 9 -21 1z"/>
<path d="M7510 3084 c0 -8 32 -33 43 -34 14 0 7 28 -9 34 -20 8 -34 8 -34 0z"/>
<path d="M6785 2922 c-93 -8 -61 -17 80 -22 88 -4 167 -3 175 2 10 5 1 8 -25
8 -22 1 -76 5 -120 8 -44 4 -93 6 -110 4z"/>
<path d="M7118 2898 c13 -13 112 -12 126 2 7 7 -16 10 -64 10 -56 0 -71 -3
-62 -12z"/>
<path d="M7470 2892 c0 -9 210 -22 347 -22 58 0 73 3 73 15 0 13 -30 15 -210
15 -115 0 -210 -4 -210 -8z"/>
<path d="M6990 2841 c0 -41 12 -45 59 -20 43 22 54 35 22 24 -12 -3 -21 0 -25
10 -3 8 -17 15 -31 15 -21 0 -25 -5 -25 -29z"/>
<path d="M8080 2810 c0 -5 5 -10 11 -10 5 0 7 5 4 10 -3 6 -8 10 -11 10 -2 0
-4 -4 -4 -10z"/>
<path d="M7027 2560 c-14 -11 -32 -17 -41 -14 -11 4 -19 -2 -26 -21 -5 -14
-10 -28 -10 -31 0 -12 54 -1 102 21 29 14 45 25 35 25 -14 0 -17 5 -12 20 8
26 -14 26 -48 0z"/>
<path d="M7115 2559 c-11 -17 0 -20 21 -4 17 13 17 14 2 15 -9 0 -20 -5 -23
-11z"/>
<path d="M7088 2423 c7 -3 16 -2 19 1 4 3 -2 6 -13 5 -11 0 -14 -3 -6 -6z"/>
<path d="M6978 2383 c7 -3 16 -2 19 1 4 3 -2 6 -13 5 -11 0 -14 -3 -6 -6z"/>
<path d="M7062 2368 c-7 -7 -12 -20 -12 -30 0 -10 -3 -17 -7 -15 -12 3 -13
-11 -3 -35 l9 -23 7 23 c3 12 10 22 15 22 5 0 10 10 10 23 1 16 2 18 6 5 2
-10 13 -18 22 -18 14 0 17 6 13 25 -2 14 -8 22 -14 19 -5 -3 -15 -1 -22 5 -9
7 -16 7 -24 -1z"/>
<path d="M7087 2285 c-6 -13 1 -25 14 -25 14 0 18 28 4 34 -7 2 -16 -1 -18 -9z"/>
<path d="M6645 2280 c-3 -5 -2 -10 4 -10 5 0 13 5 16 10 3 6 2 10 -4 10 -5 0
-13 -4 -16 -10z"/>
<path d="M6685 2259 c-9 -14 -49 -28 -55 -19 -3 4 -21 10 -40 13 -24 5 -30 4
-20 -2 12 -9 12 -11 -3 -17 -37 -14 -13 -21 73 -21 50 0 90 1 90 3 0 2 -12 11
-27 19 -25 14 -26 16 -5 11 19 -4 21 -2 11 10 -14 17 -16 17 -24 3z"/>
<path d="M6455 2232 l-50 -17 54 -3 c44 -3 57 1 73 17 19 21 19 21 -4 20 -13
0 -45 -8 -73 -17z"/>
<path d="M6751 2234 c0 -11 3 -14 6 -6 3 7 2 16 -1 19 -3 4 -6 -2 -5 -13z"/>
</g>
</svg>
